<?xml version="1.0" encoding="utf-8"?>
<!-- Generator: Adobe Illustrator 24.2.3, SVG Export Plug-In . SVG Version: 6.00 Build 0)  -->
<svg version="1.1" id="Layer_1" xmlns="http://www.w3.org/2000/svg" xmlns:xlink="http://www.w3.org/1999/xlink" x="0px" y="0px"
	 viewBox="0 0 512 512" style="enable-background:new 0 0 512 512;" xml:space="preserve">
<style type="text/css">
	.st0{fill:#8E44AD;}
</style>
<g>
	<path class="st0" d="M85.3,455.1c0-15.2,5.7-28.4,17.1-39.8s24.7-17.1,39.8-17.1c15.9,0,29.4,5.7,40.4,17.1
		c11,11.4,16.5,24.7,16.5,39.8c0,15.9-5.5,29.4-16.5,40.4S158.1,512,142.2,512c-15.2,0-28.4-5.5-39.8-16.5S85.3,471,85.3,455.1
		 M369.8,455.1c0-15.2,5.7-28.4,17.1-39.8s24.7-17.1,39.8-17.1c15.9,0,29.4,5.7,40.4,17.1s16.5,24.7,16.5,39.8
		c0,15.9-5.5,29.4-16.5,40.4S442.6,512,426.7,512c-15.2,0-28.4-5.5-39.8-16.5S369.8,471,369.8,455.1 M186.6,320.9
		c-13.7,3.8-20.1,8.2-19.3,13.1s9.1,7.4,25,7.4H512v43.2c0,7.6-3.8,11.4-11.4,11.4h-74H142.2h-13.7c-7.6,0-11.4-3.8-11.4-11.4v-43.2
		l-5.7-26.2L55.8,56.9H0V11.4C0,3.8,3.8,0,11.4,0h88.7c7.6,0,11.4,3.8,11.4,11.4v48.9H512v155.9c0,8.3-3.4,13.3-10.2,14.8
		L186.6,320.9"/>
</g>
</svg>
