<?xml version="1.0" encoding="utf-8"?>
<!-- Generator: Adobe Illustrator 24.2.3, SVG Export Plug-In . SVG Version: 6.00 Build 0)  -->
<svg version="1.1" id="Layer_1" xmlns="http://www.w3.org/2000/svg" xmlns:xlink="http://www.w3.org/1999/xlink" x="0px" y="0px"
	 viewBox="0 0 512 512" style="enable-background:new 0 0 512 512;" xml:space="preserve">
<style type="text/css">
	.st0{fill:#8E44AD;}
</style>
<g>
	<path class="st0" d="M367.6,331.1L506,469.7c9.2,10.8,7.8,27-3,36.2c-9.7,8.2-23.9,8.1-33.4-0.2L331.4,367.6
		c-89.6,69.6-218.6,53.4-288.2-36.2S-10.2,112.8,79.4,43.2S298-10.2,367.6,79.4c57.6,74.1,57.6,177.9,0,252V331.1z M205.3,359.4
		c85.1,0,154-69,154-154c0-85.1-69-154-154-154c-85.1,0-154,69-154,154C51.3,290.4,120.3,359.4,205.3,359.4z"/>
</g>
</svg>
